<svg width="32" height="32" viewBox="0 0 212 239" fill="none" xmlns="http://www.w3.org/2000/svg">
<path fill-rule="evenodd" clip-rule="evenodd" d="M132.142 3.28187C148.022 7.56954 161.417 15.4396 173.323 27.4766C181.597 35.8424 185.027 40.6019 190.433 51.2203C204.093 78.0527 210.163 108.522 211.103 154.97C211.386 168.962 211.205 188.265 210.701 197.867C209.872 213.639 209.537 215.807 207.224 220.313C201.74 231.001 196.099 233.739 176.126 235.404C137.416 238.629 58.8028 239.999 32.8174 237.901C18.6785 236.759 10.7665 232.255 5.79949 222.521C-0.3866 210.394 -1.80618 140.63 3.45913 107.497C7.52733 81.8954 19.8516 46.9347 29.0405 34.9306C43.0926 16.5718 60.1236 6.32454 84.2075 1.73959C95.0993 -0.334412 121.949 0.529505 132.142 3.28187ZM89.0149 5.3828C59.6507 9.25847 36.8696 25.4824 25.3753 50.7046C13.9459 75.7851 7.00359 104.998 5.3386 135.018L4.64627 147.488L8.08199 143.01C9.97144 140.548 12.9792 137.547 14.7659 136.343C19.6601 133.045 34.222 127.639 54.8094 121.477C64.9709 118.435 77.3241 114.031 82.2622 111.688C91.9629 107.087 108.482 97.1686 121.048 88.4017C137.428 76.9743 149.718 73.5755 164.078 76.5034C181.024 79.9581 191.135 87.7723 200.041 104.299C204.114 111.855 204.363 110.317 201.422 95.77C197.717 77.4392 188.639 54.1493 180.638 42.4455C169.219 25.7427 150.217 12.5056 130.147 7.27225C121.219 4.94387 99.798 3.96023 89.0149 5.3828ZM148.104 80.829C140.411 82.5528 134.211 85.6773 120.465 94.7594C91.6346 113.807 79.7144 119.622 55.3271 126.536C35.6815 132.106 17.5272 139.495 14.4237 143.184C7.68096 151.196 6.63847 159.725 11.2474 169.146C14.6611 176.122 17.7966 178.835 28.8021 184.33C39.2828 189.562 44.4503 191.277 57.3393 193.797C77.1835 197.677 100.29 199.039 115.432 197.221L120.67 196.591V191.643C120.67 187.344 121.116 186.248 124.061 183.302C127.026 180.337 128.09 179.91 132.506 179.91C136.714 179.91 138.138 180.418 141.016 182.945C142.916 184.614 144.764 187.307 145.12 188.929C145.691 191.53 146.083 191.804 148.432 191.239C166.291 186.942 188.822 169.543 195.931 154.56C203.41 138.794 203.392 121.79 195.878 106.819C193.107 101.298 187.671 94.089 183.518 90.4289C175.204 83.1015 158.351 78.5335 148.104 80.829ZM164.065 96.4703C175.1 99.4182 183.44 106.159 188.302 116.057C190.592 120.72 191 122.834 191 130.03C191 137.271 190.597 139.33 188.245 144.121C184.828 151.079 177.278 158.271 169.769 161.722C162.063 165.264 149.914 165.41 141.373 162.063C133.78 159.088 125.529 151.475 122 144.186C119.648 139.327 119.257 137.289 119.288 130.03C119.33 119.924 121.381 114.504 127.796 107.545C137.292 97.2434 151.135 93.0166 164.065 96.4703ZM145.933 101.478C119.245 110.209 116.473 144.416 141.459 156.686C149.099 160.438 160.415 160.595 168.325 157.058C178.616 152.456 186.511 140.723 186.511 130.03C186.511 119.285 178.559 107.503 168.325 103.083C161.895 100.307 151.74 99.5788 145.933 101.478ZM163.306 108.733C168.28 110.499 174.096 116.802 175.535 121.985C178.045 131.019 175.593 139.236 168.602 145.221C155.875 156.115 137.024 149.879 132.696 133.342C129.853 122.482 137.931 109.778 149.308 107.218C153.696 106.232 157.39 106.631 163.306 108.733ZM149.101 112.232C145.463 113.555 140.94 117.608 139.036 121.252C137.139 124.884 137.259 132.441 139.281 136.702C142.532 143.554 152.389 147.53 159.942 145.038C164.357 143.581 170.302 136.855 171.145 132.362C173.536 119.614 160.797 107.981 149.101 112.232ZM103.638 136.649C104.775 138.095 105.706 139.83 105.706 140.505C105.706 143.194 101.576 146.99 98.6497 146.99C92.6741 146.99 89.7502 140.522 93.7735 136.205C96.6256 133.143 101.037 133.342 103.638 136.649ZM97.4197 139.646C96.6226 140.443 97.5235 142.002 98.7814 142.002C99.2982 142.002 99.7202 141.328 99.7202 140.505C99.7202 138.963 98.543 138.523 97.4197 139.646ZM51.7498 141.958C58.4496 145.375 62.7872 152.454 62.8031 159.996C62.8121 163.891 58.7319 170.988 54.5889 174.283C50.1885 177.783 41.9414 178.976 36.6272 176.882C29.7787 174.182 23.9727 166.174 23.9248 159.359C23.8749 152.268 28.9657 144.293 35.3752 141.424C39.7946 139.446 47.3055 139.69 51.7498 141.958ZM204.693 145.244C201.55 158.478 190.117 173.666 176.155 183.157C169.019 188.008 155.798 194.299 149.325 195.924C146.687 196.585 143.784 198.106 142.821 199.329C141.865 200.545 140.057 202.089 138.804 202.76C135.607 204.471 129.092 204.372 126.342 202.57C124.393 201.293 122.613 201.212 115.115 202.063C102.881 203.45 77.7311 202.406 63.3079 199.911C47.911 197.248 36.5823 193.756 25.8362 188.359C15.6508 183.243 11.5885 180.014 7.77374 173.998L4.94854 169.543L4.95154 177.47C4.95652 189.244 7.81763 215.591 9.53848 219.71C11.4828 224.365 15.4153 228.458 20.4103 231.026C23.6535 232.693 27.2947 233.228 39.8634 233.881C89.0808 236.442 186.672 232.846 194.146 228.196C204.164 221.963 205.597 218.405 206.563 197.368C207.575 175.285 207.638 142.829 206.671 141.306C206.217 140.593 205.422 142.176 204.693 145.244ZM36.1773 146.946C31.5504 149.767 29.5044 153.45 29.5044 158.961C29.5044 166.982 35.3962 172.92 43.356 172.92C51.0335 172.92 56.9542 167.232 57.0669 159.747C57.2405 148.302 45.6255 141.186 36.1773 146.946ZM49.3864 152.431C53.1344 156.178 52.8072 161.956 48.6482 165.455C46.0585 167.635 44.7975 168.032 41.9145 167.573C30.6626 165.783 31.5095 149.982 42.8572 149.982C45.86 149.982 47.5848 150.629 49.3864 152.431ZM41.6112 154.719C39.3716 155.229 38.2662 159.529 39.8754 161.468C42.4222 164.536 46.8476 162.524 46.8476 158.297C46.8476 155.815 44.3356 154.098 41.6112 154.719ZM104.764 173.769C109.444 177.559 106.396 185.896 100.331 185.896C96.5159 185.896 93.7346 183.137 93.7346 179.355C93.7346 172.936 99.8868 169.821 104.764 173.769ZM99.388 177.583C98.1729 178.798 98.7006 180.908 100.219 180.908C101.05 180.908 101.715 180.021 101.715 178.913C101.715 176.925 100.652 176.318 99.388 177.583ZM130.218 189.458C128.363 191.314 128.347 191.446 129.683 193.942C131.366 197.086 136.631 195.805 136.631 192.251C136.631 190.852 133.922 187.891 132.641 187.891C132.171 187.891 131.081 188.596 130.218 189.458Z" fill="#24e68b"/>
</svg>
